<svg width="32" height="32" viewBox="0 0 32 32" fill="none" xmlns="http://www.w3.org/2000/svg">
<g clip-path="url(#clip0_33_353)">
<path d="M29.0558 24.938C28.5718 26.056 27.999 27.0851 27.3353 28.0312C26.4307 29.321 25.69 30.2139 25.1191 30.7096C24.2342 31.5234 23.2861 31.9402 22.2708 31.9639C21.542 31.9639 20.663 31.7565 19.6398 31.3358C18.6133 30.917 17.6699 30.7096 16.8073 30.7096C15.9026 30.7096 14.9324 30.917 13.8946 31.3358C12.8552 31.7565 12.0179 31.9758 11.3777 31.9975C10.4041 32.039 9.43369 31.6104 8.46503 30.7096C7.84678 30.1704 7.07347 29.246 6.14708 27.9364C5.15314 26.5379 4.33598 24.9162 3.6958 23.0674C3.0102 21.0704 2.6665 19.1367 2.6665 17.2645C2.6665 15.12 3.1299 13.2704 4.05806 11.7204C4.78752 10.4754 5.75796 9.4933 6.97254 8.77233C8.18712 8.05136 9.49947 7.68397 10.9128 7.66046C11.6861 7.66046 12.7002 7.89967 13.9604 8.36977C15.217 8.84146 16.0239 9.08067 16.3777 9.08067C16.6422 9.08067 17.5385 8.80097 19.0581 8.24336C20.4951 7.72624 21.7079 7.51212 22.7014 7.59646C25.3937 7.81374 27.4163 8.87504 28.7615 10.7871C26.3536 12.246 25.1626 14.2894 25.1863 16.9108C25.208 18.9526 25.9487 20.6517 27.4045 22.0008C28.0642 22.6269 28.801 23.1109 29.6207 23.4546C29.4429 23.9701 29.2553 24.4639 29.0558 24.938ZM22.8812 0.640427C22.8812 2.24079 22.2965 3.73505 21.1311 5.11812C19.7247 6.76232 18.0236 7.71241 16.179 7.56249C16.1555 7.3705 16.1418 7.16843 16.1418 6.95609C16.1418 5.41974 16.8106 3.77554 17.9984 2.43119C18.5913 1.75052 19.3455 1.18455 20.26 0.733065C21.1726 0.288318 22.0358 0.0423628 22.8476 0.000244141C22.8713 0.214188 22.8812 0.428145 22.8812 0.640406V0.640427Z" fill="black"/>
</g>
<defs>
<clipPath id="clip0_33_353">
<rect width="32" height="32" fill="white"/>
</clipPath>
</defs>
</svg>
