<svg width="32" height="32" viewBox="0 0 32 32" fill="none" xmlns="http://www.w3.org/2000/svg">
<g clip-path="url(#clip0_33_350)">
<path d="M32 16C32 7.16352 24.8365 0 16 0C7.16352 0 0 7.16352 0 16C0 23.5034 5.16608 29.7997 12.135 31.529V20.8896H8.83584V16H12.135V13.8931C12.135 8.44736 14.5997 5.9232 19.9462 5.9232C20.96 5.9232 22.7091 6.12224 23.4246 6.32064V10.7526C23.047 10.713 22.391 10.6931 21.5763 10.6931C18.953 10.6931 17.9392 11.687 17.9392 14.2707V16H23.1654L22.2675 20.8896H17.9392V31.8829C25.8618 30.9261 32.0006 24.1805 32.0006 16H32Z" fill="#0866FF"/>
<path d="M22.2666 20.8895L23.1646 15.9999H17.9383V14.2706C17.9383 11.6869 18.9521 10.693 21.5754 10.693C22.3902 10.693 23.0462 10.7129 23.4238 10.7525V6.32054C22.7082 6.1215 20.9591 5.9231 19.9454 5.9231C14.5988 5.9231 12.1342 8.44726 12.1342 13.893V15.9999H8.83496V20.8895H12.1342V31.5289C13.3719 31.8361 14.6666 31.9999 15.9991 31.9999C16.6551 31.9999 17.3022 31.9596 17.9377 31.8828V20.8895H22.266H22.2666Z" fill="white"/>
</g>
<defs>
<clipPath id="clip0_33_350">
<rect width="32" height="32" fill="white"/>
</clipPath>
</defs>
</svg>
